# AST/ASF file generated using VICON BodyLanguage
# -----------------------------------------------
:version 1.10
:name VICON
:units
  mass 1.0
  length 0.45
  angle deg
:documentation
   .ast/.asf automatically generated from VICON data using
   VICON BodyBuilder and BodyLanguage model FoxedUp or BRILLIANT.MOD
:root
   order TX TY TZ RX RY RZ
   axis XYZ
   position 0 0 0  
   orientation 0 0 0 
:bonedata
  begin
     id 1 
     name lhipjoint
     direction 0.623529 -0.717805 0.309788 
     length 2.23224 
     axis 0 0 0  XYZ
  end
  begin
     id 2 
     name lfemur
     direction 0.34202 -0.939693 0  
     length 7.11402  
     axis 0 0 20  XYZ
    dof rx ry rz
    limits (-160.0 20.0)
           (-70.0 70.0)
           (-60.0 70.0)
  end
  begin
     id 3 
     name ltibia
     direction 0.34202 -0.939693 0   
     length 6.78496   
     axis 0 0 20   XYZ
    dof rx
    limits (-10.0 170.0)
  end
  begin
     id 4 
     name lfoot
     direction 0.125078 -0.343648 0.930732   
     length 1.84054   
     axis -90 7.62852e-016 20   XYZ
    dof rx rz
    limits (-45.0 90.0)
           (-70.0 20.0)
  end
  begin
     id 5 
     name ltoes
     direction 1.53565e-011 -4.21893e-011 1   
     length 0.916474   
     axis -90 7.62852e-016 20   XYZ
    dof rx
    limits (-90.0 20.0)
  end
  begin
     id 6 
     name rhipjoint
     direction -0.564688 -0.757748 0.327026   
     length 2.11457  
     axis 0 0 0  XYZ 
  end
  begin
     id 7 
     name rfemur
     direction -0.34202 -0.939693 0   
     length 7.14609   
     axis 0 0 -20   XYZ
    dof rx ry rz
    limits (-160.0 20.0)
           (-70.0 70.0)
           (-70.0 60.0)
  end
  begin
     id 8 
     name rtibia
     direction -0.34202 -0.939693 0   
     length 6.78101   
     axis 0 0 -20   XYZ
    dof rx
    limits (-10.0 170.0)
 end
 begin
     id 9 
     name rfoot
     direction -0.0992671 -0.272734 0.956955   
     length 1.96168  
     axis -90 -7.62852e-016 -20   XYZ
    dof rx rz
    limits (-45.0 90.0)
           (-20.0 70.0)
  end
  begin
     id 10 
     name rtoes
     direction -1.5356e-011 -4.21891e-011 1   
     length 0.982933   
     axis -90 -7.62852e-016 -20   XYZ
    dof rx
    limits (-90.0 20.0)
  end
  begin
     id 11 
     name lowerback
     direction -0.00596953 0.998668 0.0512524   
     length 1.87557   
     axis 0 0 0   XYZ
    dof rx ry rz
    limits (-20.0 45.0)
           (-30.0 30.0)
           (-30.0 30.0)
  end
  begin
     id 12 
     name upperback
     direction 0.00584879 0.999652 0.0257308   
     length 1.87883   
     axis 0 0 0   XYZ
    dof rx ry rz
    limits (-20.0 45.0)
           (-30.0 30.0)
           (-30.0 30.0)
  end
  begin
     id 13 
     name thorax
     direction 0.010104 0.999947 0.00178881   
     length 1.87779   
     axis 0 0 0   XYZ
    dof rx ry rz
    limits (-20.0 45.0)
           (-30.0 30.0)
           (-30.0 30.0)
  end
  begin
     id 14 
     name lowerneck
     direction 0.0120771 0.995934 -0.0892773   
     length 1.40897   
     axis 0 0 0   XYZ
    dof rx ry rz
    limits (-20.0 45.0)
           (-30.0 30.0)
           (-30.0 30.0)
  end
  begin
     id 15 
     name upperneck
     direction -0.030568 0.999465 -0.0116366   
     length 1.38661   
     axis 0 0 0   XYZ
    dof rx ry rz
    limits (-20.0 45.0)
           (-30.0 30.0)
           (-30.0 30.0)
  end
  begin
     id 16
     name head
     direction -0.0170715 0.999854 -0.00104426  
     length 1.47052  
     axis 0 0 0   XYZ
    dof rx ry rz
    limits (-20.0 45.0)
           (-30.0 30.0)
           (-30.0 30.0)
  end
  begin
     id 17 
     name lclavicle
     direction 0.977763 0.206143 0.038532  
     length 3.02424  
     axis 0 0 0   XYZ
    dof ry rz
    limits (-20.0 10.0)
           (0.0 20.0)
  end
  begin
     id 18 
     name lhumerus
     direction 1 -4.48965e-011 -2.62654e-027   
     length 4.68382   
     axis 180 -30 -90   XYZ
    dof rx ry rz
    limits (-60.0 90.0)
           (-90.0 90.0)
           (-90.0 90.0)
  end
  begin
     id 19
     name lradius
     direction 1 -4.48973e-011 -1.54954e-027   
     length 2.98124   
     axis 180 -30 -90   XYZ
    dof rx
    limits (-10.0 170.0)
  end
  begin
     id 20
     name lwrist
     direction 1 -4.48959e-011 7.20928e-028   
     length 1.49062   
     axis -5.52449e-016 90 90   XYZ
    dof ry
    limits (-180.0 0.0)
 end
  begin
     id 21 
     name lhand
     direction 1 -4.48971e-011 1.44186e-027   
     length 0.707595   
     axis -9.20027e-016 90 90   XYZ
    dof rx rz
    limits (-90.0 90.0)
           (-45.0 45.0)
  end
  begin
     id 22 
     name lfingers
     direction 1 -4.48985e-011 2.88371e-027   
     length 0.570481   
     axis -1.84005e-015 90 90   XYZ
    dof rx
    limits (0.0 90.0)
  end
  begin
     id 23
     name lthumb
     direction 0.707107 -6.34929e-011 0.707107   
     length 0.819101   
     axis -90 45 2.85299e-015   XYZ
    dof rx rz
    limits (-45.0 45.0)
           (-45.0 45.0)
  end
  begin
     id 24 
     name rclavicle
     direction -0.958661 0.284411 -0.00895327   
     length 3.11921  
     axis 0 0 0   XYZ 
    dof ry rz
    limits (-10.0 20.0)
           (-20.0 0.0)
  end
  begin
     id 25 
     name rhumerus
     direction -1 -4.48963e-011 -4.22193e-027  
     length 4.75876   
     axis 180 30 90   XYZ
    dof rx ry rz
    limits (-90.0 60.0)
           (-90.0 90.0)
           (-90.0 90.0)
  end
  begin
     id 26 
     name rradius
     direction -1 -4.48968e-011 -1.07616e-027   
     length 2.93293   
     axis 180 30 90   XYZ
    dof rx
    limits (-10.0 170.0)
  end
  begin
     id 27 
     name rwrist
     direction -1 -4.48965e-011 7.20928e-028   
     length 1.46647   
     axis -5.52449e-016 -90 -90   XYZ
    dof ry
    limits (-180.0 0.0)
  end
  begin
     id 28
     name rhand
     direction -1 -4.48971e-011 1.44186e-027   
     length 0.831748   
     axis -9.20027e-016 -90 -90   XYZ
    dof rx rz
    limits (-90.0 90.0)
           (-45.0 45.0)
  end
  begin
     id 29
     name rfingers
     direction -1 -4.48961e-011 2.88371e-027   
     length 0.670577   
     axis -1.84005e-015 -90 -90   XYZ
    dof rx
    limits (0.0 90.0)
  end
  begin
     id 30
     name rthumb
     direction -0.707107 -6.34929e-011 0.707107   
     length 0.962818   
     axis -90 -45 -2.85299e-015   XYZ
    dof rx rz
    limits (-45.0 45.0)
           (-45.0 45.0)
  end
:hierarchy
  begin
    root lhipjoint rhipjoint lowerback
    lhipjoint lfemur
    lfemur ltibia
    ltibia lfoot
    lfoot ltoes
    rhipjoint rfemur
    rfemur rtibia
    rtibia rfoot
    rfoot rtoes
    lowerback upperback
    upperback thorax
    thorax lowerneck lclavicle rclavicle
    lowerneck upperneck
    upperneck head
    lclavicle lhumerus
    lhumerus lradius
    lradius lwrist
    lwrist lhand lthumb
    lhand lfingers
    rclavicle rhumerus
    rhumerus rradius
    rradius rwrist
    rwrist rhand rthumb
    rhand rfingers
  end

#!OML:ASF E:\id_vita\Project 1\Capture day 1\Session 1\Female.ASF
:FULLY-SPECIFIED
:DEGREES
481
root -17.7135 14.9843 -7.93833 -323.292 -56.1141 4.24492
lowerback 9.61659 -5.33048 -0.487403
upperback 2.35643 -6.99109 8.42379
thorax -1.75401 -3.59875 9.94955
lowerneck -11.1874 -0.747484 -6.65208
upperneck -24.2608 -0.413501 8.12443
head -5.50069 -0.669695 3.8239
rclavicle -9.18385e-014 2.34566e-014
rhumerus 23.1615 14.0997 -96.3472
rradius 64.0747
rwrist -25.7669
rhand -38.9474 -1.07464
rfingers 7.12502
rthumb -11.953 -30.7134
lclavicle -9.18385e-014 2.34566e-014
lhumerus 55.3011 -17.7004 106.423
lradius 16.1039
lwrist -9.20423
lhand 0.465882 51.1389
lfingers 7.12502
lthumb 26.0365 79.3748
rfemur -82.3242 -13.2474 38.2861
rtibia 46.0943
rfoot 4.02982 -21.8191
rtoes 3.00445
lfemur -40.4554 23.4992 -17.5237
ltibia 52.8042
lfoot -12.0116 16.6838
ltoes -8.05421
482
root -17.6936 14.9696 -7.92636 -323.024 -56.5698 3.23151
lowerback 9.64152 -4.95448 -0.56882
upperback 2.80169 -6.53902 8.3512
thorax -1.37703 -3.39719 9.84975
lowerneck -11.5415 -0.893159 -6.66615
upperneck -24.2524 -0.579862 8.28396
head -5.42795 -0.759055 3.87747
rclavicle 1.27222e-014 -6.75868e-015
rhumerus 23.4936 13.4993 -96.4029
rradius 64.2462
rwrist -25.048
rhand -38.4709 -1.90329
rfingers 7.12502
rthumb -11.4934 -31.5682
lclavicle 1.27222e-014 -6.75868e-015
lhumerus 55.4881 -18.097 106.543
lradius 16.104
lwrist -9.47452
lhand 3.6077 50.5629
lfingers 7.12502
lthumb 29.0411 78.3196
rfemur -81.6432 -12.8725 38.4633
rtibia 46.1659
rfoot 4.13277 -21.6275
rtoes 2.20602
lfemur -39.7195 24.4365 -17.1784
ltibia 53.0059
lfoot -12.769 16.7345
ltoes -8.35045
483
root -17.6554 14.9551 -7.93622 -322.911 -56.2841 3.0164
lowerback 9.6193 -4.95139 -0.514154
upperback 2.93048 -6.54068 8.35039
thorax -1.23523 -3.4059 9.80573
lowerneck -12.0415 -0.977441 -6.54695
upperneck -24.106 -0.694567 8.29695
head -5.29635 -0.8219 3.85432
rclavicle 2.5842e-014 -5.86415e-014
rhumerus 23.8598 13.2913 -96.3503
rradius 64.4571
rwrist -24.5827
rhand -38.0816 -2.69694
rfingers 7.12502
rthumb -11.118 -32.3824
lclavicle 2.5842e-014 -5.86415e-014
lhumerus 55.7692 -18.6262 105.813
lradius 16.432
lwrist -8.62917
lhand 0.512962 50.4846
lfingers 7.12502
lthumb 26.0816 78.7138
rfemur -81.7522 -12.954 38.6208
rtibia 46.2114
rfoot 4.40133 -21.6623
rtoes 2.21087
lfemur -39.9532 24.4382 -17.0624
ltibia 53.3025
lfoot -13.0891 16.9434
ltoes -11.1771
484
root -17.5883 14.9406 -7.96519 -323.256 -55.2597 3.7654
lowerback 9.76699 -5.30158 -0.500842
upperback 2.47821 -6.95628 8.45949
thorax -1.70777 -3.58722 10.004
lowerneck -10.9326 -1.00279 -6.37564
upperneck -24.5791 -0.792999 8.12165
head -5.61444 -0.890669 3.7889
rclavicle 8.46823e-014 -1.19271e-015
rhumerus 23.624 13.0985 -96.4911
rradius 64.5884
rwrist -24.0148
rhand -37.4637 -3.68497
rfingers 7.12502
rthumb -10.5219 -33.4016
lclavicle 8.46823e-014 -1.19271e-015
lhumerus 55.3262 -18.6476 105.825
lradius 16.8878
lwrist -8.32349
lhand 1.43036 50.5563
lfingers 7.12502
lthumb 26.9597 78.653
rfemur -82.5492 -13.5634 38.6022
rtibia 46.2833
rfoot 4.64119 -22.0309
rtoes 3.00681
lfemur -40.9977 23.5755 -17.2269
ltibia 53.6474
lfoot -13.2172 17.0781
ltoes -9.96612
485
root -17.5635 14.931 -7.95423 -323.015 -55.4174 2.64313
lowerback 9.85729 -5.15124 -0.379786
upperback 2.89736 -6.77952 8.47528
thorax -1.35857 -3.52398 9.91746
lowerneck -10.9964 -0.94505 -6.06954
upperneck -24.6608 -0.775733 7.87848
head -5.6387 -0.898071 3.65839
rclavicle -2.98177e-015 -1.80894e-014
rhumerus 23.9759 13.453 -96.3437
rradius 64.6027
rwrist -25.2356
rhand -39.006 -2.12295
rfingers 7.12502
rthumb -12.0094 -31.7584
lclavicle -2.98177e-015 -1.80894e-014
lhumerus 55.4837 -18.3504 106.426
lradius 16.8509
lwrist -9.21911
lhand 2.89222 50.4754
lfingers 7.12502
lthumb 28.3576 78.3478
rfemur -81.7914 -13.3933 38.9471
rtibia 46.3148
rfoot 4.50756 -21.8959
rtoes 2.97748
lfemur -40.3568 24.3532 -16.6143
ltibia 53.9608
lfoot -14.0264 17.0291
ltoes -10.7871
486
root -17.532 14.9176 -7.95657 -323.083 -55.5088 2.49026
lowerback 9.78019 -5.05934 -0.705535
upperback 2.88694 -6.69294 8.42788
thorax -1.31001 -3.48288 10.0369
lowerneck -10.1948 -0.87208 -5.60701
upperneck -25.0108 -0.784076 7.4558
head -5.88572 -0.926574 3.45568
rclavicle 5.78463e-014 3.1408e-014
rhumerus 23.5231 13.0315 -96.551
rradius 65.1002
rwrist -24.2882
rhand -37.8063 -2.77771
rfingers 7.12502
rthumb -10.8524 -32.4773
lclavicle 5.78463e-014 3.1408e-014
lhumerus 55.2457 -18.2386 106.89
lradius 16.8677
lwrist -9.75975
lhand 3.17759 50.6018
lfingers 7.12502
lthumb 28.6302 78.4285
rfemur -81.7669 -13.38 38.9074
rtibia 46.4003
rfoot 4.50753 -21.8017
rtoes 3.30204
lfemur -40.4162 24.6365 -16.681
ltibia 54.3532
lfoot -14.6641 17.0802
ltoes -11.43
487
root -17.4871 14.907 -7.97422 -323.199 -55.0368 2.56851
lowerback 9.84045 -5.18658 -0.864617
upperback 2.78652 -6.86615 8.49937
thorax -1.38898 -3.56705 10.2369
lowerneck -10.3412 -0.955875 -6.46251
upperneck -24.5124 -0.656381 8.47504
head -5.68574 -0.829523 3.91969
rclavicle 2.76311e-014 -3.97569e-014
rhumerus 23.2982 12.997 -96.6461
rradius 65.6373
rwrist -24.0731
rhand -37.4615 -3.61425
rfingers 7.12502
rthumb -10.5198 -33.331
lclavicle 2.76311e-014 -3.97569e-014
lhumerus 55.3144 -18.332 106.687
lradius 16.853
lwrist -9.33427
lhand 3.38723 50.5247
lfingers 7.12502
lthumb 28.8305 78.3174
rfemur -82.0074 -13.7208 39.0731
rtibia 46.4724
rfoot 4.73372 -21.8126
rtoes 3.15295
lfemur -40.8195 24.3981 -16.6493
ltibia 54.7603
lfoot -14.9454 17.2743
ltoes -11.8151
488
root -17.4223 14.8817 -8.00099 -323.232 -54.162 2.92087
lowerback 9.84316 -5.35571 -0.773341
upperback 2.8244 -7.08301 8.70881
thorax -1.29267 -3.6853 10.4325
lowerneck -11.0022 -1.11311 -6.579
upperneck -24.6886 -0.868117 8.47995
head -5.62476 -0.932537 3.94507
rclavicle -8.96519e-014 5.70512e-014
rhumerus 23.7738 12.6738 -96.7972
rradius 66.0797
rwrist -23.8476
rhand -36.9875 -4.49704
rfingers 7.12502
rthumb -10.0626 -34.2365
lclavicle -8.96519e-014 5.70512e-014
lhumerus 56.1043 -18.728 106.433
lradius 16.7802
lwrist -9.08305
lhand 3.89539 50.4576
lfingers 7.12502
lthumb 29.3158 78.1666
rfemur -82.7651 -14.1043 39.2232
rtibia 46.6365
rfoot 5.10968 -22.1506
rtoes 3.15386
lfemur -41.8653 23.8537 -16.7029
ltibia 55.2755
lfoot -15.0792 17.4216
ltoes -11.9786
489
root -17.3754 14.8651 -8.01217 -323.024 -53.6055 2.22185
lowerback 10.1215 -5.43924 -0.290494
upperback 2.81301 -7.1319 8.75238
thorax -1.50295 -3.7011 10.2439
lowerneck -10.7757 -1.01522 -6.20348
upperneck -24.5674 -0.776247 8.32693
head -5.6315 -0.904299 3.82629
rclavicle -6.59965e-014 3.99557e-014
rhumerus 23.612 12.6866 -96.7609
rradius 66.1175
rwrist -24.0866
rhand -37.0594 -3.86598
rfingers 7.12502
rthumb -10.1319 -33.602
lclavicle -6.59965e-014 3.99557e-014
lhumerus 55.9598 -18.8729 106.294
lradius 16.9368
lwrist -9.05965
lhand 4.03292 50.8022
lfingers 7.12502
lthumb 29.4471 78.4882
rfemur -82.6278 -14.2966 39.6893
rtibia 46.7953
rfoot 4.97799 -22.4054
rtoes 3.95613
lfemur -41.9505 24.0399 -16.0727
ltibia 55.7894
lfoot -15.514 17.2891
ltoes -11.4072
